<?xml version="1.0" ?>
<svg xmlns="http://www.w3.org/2000/svg" viewBox="0 0 64 64">
    <polygon fill="#dbdff4" points="43.6 23.66 11.07 56.18 4.86 57.43 4 57.6 5.41 50.53 37.94 18 43.6 23.66"/>
    <polygon fill="#fffffb" points="40.8 20.86 8.27 53.38 4.86 57.43 4 57.6 5.36 50.79 5.41 50.53 37.94 18 40.8 20.86"/>
    <polygon fill="none" stroke="#354951" stroke-linecap="round" stroke-linejoin="round" stroke-width="2" points="11.07 56.59 4 58 5.41 50.93 37.94 18.4 43.6 24.06 11.07 56.59"/>
    <rect width="3" height="13" x="47.16" y="7.16" fill="#99a8c6" transform="translate(23.91 -30.41) rotate(45)"/>
    <rect width="3" height="13" x="47.16" y="7.16" fill="none" stroke="#354951" stroke-linecap="round" stroke-linejoin="round" stroke-width="2" transform="translate(23.91 -30.41) rotate(45)"/>
    <circle cx="39" cy="23" r="1" fill="#354951"/>
    <line x1="35" x2="9" y1="27" y2="53" fill="none" stroke="#354951" stroke-linecap="round" stroke-linejoin="round" stroke-width="2"/>
    <path fill="#41b883" d="M56,20l-5.11,5.84L49.7,27.2A27.54,27.54,0,0,1,34.8,12.3l2.06-.85,1.64-.68A23.52,23.52,0,0,0,49.1,22.49l1.5-1.29L52,20Z"/>
    <path fill="#419083" d="M56,20l-5.11,5.84a27.51,27.51,0,0,1-14-14.39l1.64-.68A23.52,23.52,0,0,0,49.1,22.49l1.5-1.29a5,5,0,0,0,.5.29L52.84,20Z"/>
    <path fill="none" stroke="#354951" stroke-linecap="round" stroke-linejoin="round" stroke-width="2" d="M56,20H52l-2.9,2.49A23.52,23.52,0,0,1,38.5,10.77L34.8,12.3A27.52,27.52,0,0,0,49.7,27.2Z"/>
    <rect width="5" height="3" x="51.8" y="6.33" fill="#9494af" transform="translate(21.4 -36.01) rotate(45)"/>
    <rect width="5" height="3" x="51.8" y="6.33" fill="none" stroke="#354951" stroke-linecap="round" stroke-linejoin="round" stroke-width="2" transform="translate(21.4 -36.01) rotate(45)"/>
</svg>
